<?xml version="1.0" encoding="utf-8"?>
<!-- Generator: Adobe Illustrator 24.0.1, SVG Export Plug-In . SVG Version: 6.00 Build 0)  -->
<svg version="1.1" id="Layer_1" xmlns="http://www.w3.org/2000/svg" xmlns:xlink="http://www.w3.org/1999/xlink" x="0px" y="0px"
	 viewBox="0 0 512 512" style="enable-background:new 0 0 512 512;" xml:space="preserve">
<style type="text/css">
	.st0{fill:#DC3545;}
</style>
<path class="st0" d="M505.7,420.5c0,14.9,0.2,29.7,0,44.6c-0.3,23.6-17.5,41.2-40.9,40.9c-123.3-1.6-230-44.4-319-130.1
	C78.5,311.2,34.9,232.9,16.3,141.5C10,110.8,8.1,79,6.1,47.6C4.6,23.6,23,6.3,47.3,6.2c29.7-0.2,59.5-0.2,89.2,0
	C160.3,6.4,175.5,23,178,46.8c2.8,27.6,7.2,55.1,12.8,82.3c3.7,17.9,3.2,33.3-9.1,48c-12.4,14.8-23.1,31-35.3,46
	c-4.9,6-4.4,10.3-0.8,16.7c30.3,54.8,72.6,97.4,127.8,127.2c6,3.2,9.7,2.5,14.7-1.4c16.4-12.9,33.3-25,49.5-38
	c10.8-8.6,22.6-11.5,35.5-7.9c30.9,8.7,62.1,14.2,94.3,15c23,0.6,37.9,18,38.2,41.2C505.9,390.7,505.7,405.6,505.7,420.5z"/>
</svg>
