<svg id="Layer_1" data-name="Layer 1" xmlns="http://www.w3.org/2000/svg" viewBox="0 0 87.24 150"><defs><style>.cls-1{fill:#fff;}</style></defs><title>facebook</title><path class="cls-1" d="M72.65,56.12c11.93,0,23.86-.07,35.79,0,4,0,6.75,2.62,7.1,6.17s-1.83,6.55-5.71,7.52a15.24,15.24,0,0,1-3.64.34c-7.36,0-14.72,0-22.08,0-7.57,0-6.67-.95-6.68,6.85,0,20.85,0,41.7,0,62.56a26.78,26.78,0,0,1-.4,5,6.73,6.73,0,0,1-6.34,5.4,6.64,6.64,0,0,1-6.73-4.9,23.47,23.47,0,0,1-.6-5.61q-.06-32.46,0-64.91c0-4.37,0-4.38-4.45-4.38-6.91,0-13.83,0-20.74,0-4.13,0-7.09-1.92-8-4.86-1.48-4.72,1.55-9,6.75-9.15,8.36-.18,16.73-.08,25.09-.09H72.65Z" transform="translate(-29.73 0)"/><path class="cls-1" d="M100,13.79c-4.32.34-8.72.26-12.93,1.12-5.12,1-8.23,4.56-9.12,9.85-.18,1.1-.52,2.17-.79,3.25-1,3.87-3.87,6.22-7.33,5.89a7,7,0,0,1-6.34-7.36A25.85,25.85,0,0,1,72.32,7,26.68,26.68,0,0,1,90.91,0c6.24.1,12.49,0,18.73,0C114,.09,116.93,3,117,7s-2.8,6.85-7.25,7.09l-.67,0h-9Z" transform="translate(-29.73 0)"/></svg>