<svg id="Layer_1" data-name="Layer 1" xmlns="http://www.w3.org/2000/svg" viewBox="0 0 148.47 148.45"><defs><style>.cls-1{fill:#fff;}</style></defs><title>instagram</title><path class="cls-1" d="M148.28,75.19c0,10.7,0,21.4,0,32.11-.07,24-17.94,41.84-41.87,41.89q-32.29.08-64.58,0c-24.16,0-41.95-17.88-42-42.1Q-.21,75-.15,42.87c0-24.2,17.84-42,42-42.06q32.28-.06,64.57,0c23.92,0,41.76,18,41.83,41.93C148.31,53.56,148.28,64.37,148.28,75.19ZM73.75,135.94h33.78A27.66,27.66,0,0,0,135,108.59q0-33.43,0-66.88c0-14.92-11.92-27.49-26.87-27.66q-34.09-.36-68.22,0a27.41,27.41,0,0,0-26.82,26.7q-.37,34.26,0,68.53c.17,14.73,12.81,26.65,27.52,26.66Z" transform="translate(0.18 -0.77)"/><path class="cls-1" d="M112.37,75.15c-.1,21-17.73,38.37-38.62,38.15s-38.11-17.67-38-38.45c.11-21,17.73-38.37,38.63-38.15S112.48,54.37,112.37,75.15Zm-13.31.29c.58-13.3-10.25-24.93-24.4-25.32-13.45-.36-24.79,9.22-25.57,24.45C48.41,87.79,59.4,99.15,73.46,100,86.71,100.75,98.45,89.5,99.06,75.44Z" transform="translate(0.18 -0.77)"/><path class="cls-1" d="M113.86,25.65a9.61,9.61,0,0,1,.27,19.21,9.61,9.61,0,1,1-.27-19.21Z" transform="translate(0.18 -0.77)"/></svg>