<?xml version="1.0" encoding="utf-8"?>
<!-- Generator: Adobe Illustrator 24.0.1, SVG Export Plug-In . SVG Version: 6.00 Build 0)  -->
<svg version="1.1" id="Layer_1" xmlns="http://www.w3.org/2000/svg" xmlns:xlink="http://www.w3.org/1999/xlink" x="0px" y="0px"
	 viewBox="0 0 512 512" style="enable-background:new 0 0 512 512;" xml:space="preserve">
<style type="text/css">
	.st0{opacity:0.2;}
</style>
<g class="st0">
	<path d="M111.3,148.6C109.8,69.1,177.2,3.2,258.2,5c80.8,1.9,145,71.2,139.4,150.7c-2.2,31.6-11.2,61.7-26.1,89.3
		c-15.6,28.7-33.5,56.1-51.1,83.7c-6.8,10.6-16.8,12.5-25.1,6.8c-8.5-5.9-9.7-16.8-2.3-26.9c22.8-31.1,43.6-63.3,57.4-99.4
		c12.6-33,19.4-66.5,7.7-101.4C341.8,59.1,291,28,239.9,35.6c-52.9,7.8-92.1,50.6-94.1,102.7c-1.4,37.8,11.6,71.7,28.7,104.3
		c22.2,42.3,50.9,79.9,82.9,115.1c3.8,4.2,8,8.1,11.1,12.7c5,7.5,4.2,15.2-2.4,21.5c-6.6,6.2-14.2,6.3-21.7,1.4
		c-1.9-1.2-3.4-2.9-5-4.6c-46.9-50.1-88-104.3-112.5-169c-8.6-22.6-12.6-47-18.6-70.5C109.4,149.1,110.4,148.8,111.3,148.6z"/>
	<path d="M271.6,507c-75.4-1.6-133.1-8.2-186-36.5c-13.1-7-25.9-15.7-36.7-25.9C5.6,403.8,8,341.8,54.6,304.8
		c13.3-10.6,29.5-17.8,45-25.3c10.1-4.8,19.6,0.1,23.1,9.4c3.2,8.8-1.2,16.7-10.6,22c-14.3,8-30,14.9-41.9,25.7
		C45.6,359,46,393,69.2,417.1c22.8,23.6,52.1,35.9,83,43.2c77.7,18.3,155.4,18.6,231.2-9c18.3-6.7,36.3-17.3,51.2-29.9
		c32.7-27.8,29.1-70.2-6.5-94.6c-9.2-6.3-19.7-10.8-29.9-15.7c-10.7-5.2-15-13-11.5-22.3c3.7-9.8,13-13.6,24.2-9.1
		c20.4,8.1,39.7,18.5,54.8,34.9c35.1,38.2,33.5,92-4,128.7c-28.6,28.1-64.5,43.2-102.8,51.1C324.9,501.4,290,504.4,271.6,507z"/>
	<path d="M305.2,135.3c-0.1,28.2-22.9,50.7-51.3,50.4c-27.7-0.3-49.9-22.7-50.1-50.6c-0.2-27.2,22.9-50.5,50.2-50.6
		C282.2,84.5,305.3,107.3,305.2,135.3z M271.2,134.9c-0.1-9.1-7.5-16.4-16.6-16.4c-9.1,0-16.5,7.2-16.7,16.3
		c-0.2,9.6,7.5,17.2,17.1,16.9C264.2,151.5,271.3,144.1,271.2,134.9z"/>
</g>
</svg>
