<?xml version="1.0" encoding="utf-8"?>
<!-- Generator: Adobe Illustrator 24.0.1, SVG Export Plug-In . SVG Version: 6.00 Build 0)  -->
<svg version="1.1" id="Layer_1" xmlns="http://www.w3.org/2000/svg" xmlns:xlink="http://www.w3.org/1999/xlink" x="0px" y="0px"
	 viewBox="0 0 512 512" style="enable-background:new 0 0 512 512;" xml:space="preserve">
<style type="text/css">
	.st0{fill:#DC3545;}
</style>
<path class="st0" d="M5.7,152.4c13.2,8.5,25.2,16.1,37.1,23.8c65.9,42.6,131.9,85,197.5,128c11.3,7.4,20.1,7.5,31.5,0.1
	c74-48.4,148.3-96.2,222.6-144.2c3.5-2.3,7.2-4.4,12.1-7.4c0.3,5,0.6,8.4,0.6,11.8c0,76.1,0.1,152.1,0,228.2
	c0,44.2-24.7,68.9-68.9,68.9c-123.5,0.1-247,0.1-370.4-0.1C33,461.5,5.3,435.2,5.1,401C4.7,320.6,5,240.2,5,159.7
	C5,157.9,5.3,156.1,5.7,152.4z"/>
<path class="st0" d="M257,59.9c62.5,0,125-0.1,187.5,0c27.3,0.1,49.8,16.2,58.8,40.9c2.9,7.9,2.1,12.6-5.8,17.7
	c-77.1,49.4-153.9,99-230.6,149.1c-8.4,5.5-14.1,5-22.2-0.3c-76-49.6-152.1-98.9-228.5-147.8c-9-5.8-10.4-11.1-6.7-20.4
	C18.9,75.4,40.8,60.1,68.3,60C131.2,59.8,194.1,59.9,257,59.9z"/>
</svg>
