<svg id="Layer_1" data-name="Layer 1" xmlns="http://www.w3.org/2000/svg" viewBox="0 0 149.04 120.22"><defs><style>.cls-1{fill:#fff;}</style></defs><title>twitter</title><path class="cls-1" d="M21.76,117.34a68.65,68.65,0,0,0,25.65,5.11c14.85,0,28.88-3.19,41.22-11.8C110,95.73,120.43,74.86,120.82,49c.06-4,1.23-6.69,4.56-8.84,4.84-3.13,9.48-6.56,14.23-9.82,3.49-2.39,6.91-2.1,8.84.65s1.18,6-2.3,8.51c-3.71,2.62-7.42,5.26-11.26,7.69A5.53,5.53,0,0,0,132,52.23c-.57,19.92-7.52,37.5-20.26,52.67a77.67,77.67,0,0,1-51.6,28C40.44,135.38,22,131.88,4.86,121.6c-2.51-1.5-4.68-3.15-4.35-6.43S3.39,110.74,6.2,110q18.87-5.3,37.74-10.66c2.73-.77,5.29-.79,7.22,1.72,2.61,3.39,1,7.6-3.61,9-7.22,2.15-14.49,4.14-21.74,6.2Z" transform="translate(-0.48 -13.47)"/><path class="cls-1" d="M65.86,43.25C68.29,29.51,75.2,19.9,88.21,15.39c10.72-3.71,20.8-1.92,30.06,4.37a4.49,4.49,0,0,0,4.81.61q5.25-2.07,10.61-3.86c3.85-1.3,6.8-.11,8,3.07s-.36,6-4.18,7.43c-4.65,1.8-9.43,3.3-14,5.29-3.86,1.69-6.79,1.06-10-1.73C105.93,23.8,96.9,23,88,27.82c-7.54,4.09-12.18,13.77-10.6,22.29.51,2.76.56,5.38-1.93,7.24s-5,1.12-7.49-.15Q41.18,43.54,14.36,29.89c-4.26-2.17-5.58-5.26-3.67-8.47,1.4-2.36,3.49-3.35,6.19-2.5a24.54,24.54,0,0,1,3.66,1.56Q41.75,31.17,63,41.9C63.82,42.33,64.71,42.71,65.86,43.25Z" transform="translate(-0.48 -13.47)"/><path class="cls-1" d="M22.34,66.35c-3.79-1.12-8.73-2.36-13.5-4.08-2.64-1-3.59-4.15-2.62-6.73a5.49,5.49,0,0,1,6.35-3.6c4.4,1.1,8.78,2.31,13.1,3.68a5.36,5.36,0,0,1,3.82,6.19C28.9,64.76,26.59,66.54,22.34,66.35Z" transform="translate(-0.48 -13.47)"/><path class="cls-1" d="M27.25,90.91c-2,0-4,.06-5.95,0-3.31-.13-5.55-2.26-5.7-5.31A5.46,5.46,0,0,1,21,79.65c4-.28,8-.45,11.93-.54,3.56-.09,6.13,2.28,6.22,5.51S37,90.16,33.22,90.38c-2,.11-4,.19-6,.29Z" transform="translate(-0.48 -13.47)"/></svg>