<svg id="Layer_1" data-name="Layer 1" xmlns="http://www.w3.org/2000/svg" viewBox="0 0 144.54 147.41"><defs><style>.cls-1{fill:#fff;}</style></defs><title>whatsapp</title><path class="cls-1" d="M146.54,72.14A72.61,72.61,0,0,1,46,138.83a8,8,0,0,0-4.92-.23c-8.81,2.65-17.57,5.5-26.32,8.35-2.55.83-4.79.67-6.5-1.57a4.93,4.93,0,0,1,2.52-7.78c10.4-3.46,20.85-6.79,31.37-9.85,1.76-.51,4.15.2,6,1,20.07,8.66,39.74,7.87,58.33-3.53,19.86-12.18,30.15-30.52,29.82-53.81-.43-29.77-20.07-53.29-48.85-60C53.43,3.45,18,27.58,12.83,61.94a64.19,64.19,0,0,0,5.39,36.88,41.14,41.14,0,0,1,1.69,3.93c1,3,0,5.39-2.64,6.59a4.64,4.64,0,0,1-6.47-2.71c-2.52-6.18-5.33-12.35-6.88-18.79C-5.06,50.4,18.32,12,55.65,2.39c35-9,70.5,8.07,85,41.23A70.91,70.91,0,0,1,146.54,72.14Z" transform="translate(-2 0)"/><path class="cls-1" d="M61.09,58.48c-2.2-2.75-4.3-5.69-6.73-8.33-2.71-2.94-7-1.78-7.72,2.25a10.63,10.63,0,0,0,.89,6.3C56.89,77.61,71.35,91,91.29,98.23c5.54,2,8.95,1,10.34-3.21.28-.85.13-2.43-.43-2.87-3.35-2.57-6.88-4.91-10.32-7.31a26.63,26.63,0,0,1-2.49,2.71,4.62,4.62,0,0,1-6.07.1,4.55,4.55,0,0,1-1.7-5.78c2.15-5.32,7.37-8.09,12.77-6.2a40.68,40.68,0,0,1,16.39,10.66,9.71,9.71,0,0,1,2.32,8.89c-2.09,10.93-12,16.84-22.57,13.14C66.14,100.18,48.94,84.9,38.15,62.57,32.57,51,39.88,37.92,51.8,38c2.13,0,4.9.71,6.27,2.14A99.44,99.44,0,0,1,69.64,54.3c2.94,4.53,1.62,9-2.43,12.67-2.65,2.39-5.82,2.45-7.9.15s-1.61-5,.9-7.51C60.44,59.38,60.61,59.1,61.09,58.48Z" transform="translate(-2 0)"/></svg>