<?xml version="1.0" encoding="utf-8"?>
<!-- Generator: Adobe Illustrator 24.0.1, SVG Export Plug-In . SVG Version: 6.00 Build 0)  -->
<svg version="1.1" id="Layer_1" xmlns="http://www.w3.org/2000/svg" xmlns:xlink="http://www.w3.org/1999/xlink" x="0px" y="0px"
	 viewBox="0 0 250 250" style="enable-background:new 0 0 250 250;" xml:space="preserve">
<style type="text/css">
	.st0{fill:#017BBC;}
</style>
<g>
	<g>
		<polygon class="st0" points="233.3,63.4 233.2,63.9 233.2,63.4 		"/>
		<polygon class="st0" points="233.2,63.4 233.3,63.4 233.2,63.9 		"/>
	</g>
	<g>
		<path class="st0" d="M34.3,97.5l0.2,44.2l69.4,41l2-44.8L34.3,97.5z M34.3,97.5l0.2,44.2l69.4,41l2-44.8L34.3,97.5z M145.9,135.2
			v47.2l68.3-41.1l0.2-44L145.9,135.2z M145.9,135.2v47.2l68.3-41.1l0.2-44L145.9,135.2z M34.3,97.5l0.2,44.2l69.4,41l2-44.8
			L34.3,97.5z M145.9,135.2v47.2l68.3-41.1l0.2-44L145.9,135.2z M145.9,135.2v47.2l68.3-41.1l0.2-44L145.9,135.2z M34.3,97.5
			l0.2,44.2l69.4,41l2-44.8L34.3,97.5z M145.9,135.2v47.2l68.3-41.1l0.2-44L145.9,135.2z M145.9,135.2v47.2l68.3-41.1l0.2-44
			L145.9,135.2z M34.3,97.5l0.2,44.2l69.4,41l2-44.8L34.3,97.5z M145.9,135.2v47.2l68.3-41.1l0.2-44L145.9,135.2z M145.9,135.2v47.2
			l68.3-41.1l0.2-44L145.9,135.2z M34.3,97.5l0.2,44.2l69.4,41l2-44.8L34.3,97.5z M145.9,135.2v47.2l68.3-41.1l0.2-44L145.9,135.2z
			 M34.3,97.5l0.2,44.2l69.4,41l2-44.8L34.3,97.5z M145.9,135.2v47.2l68.3-41.1l0.2-44L145.9,135.2z M34.3,97.5l0.2,44.2l69.4,41
			l2-44.8L34.3,97.5z M145.9,135.2v47.2l68.3-41.1l0.2-44L145.9,135.2z M34.3,97.5l0.2,44.2l69.4,41l2-44.8L34.3,97.5z M145.9,135.2
			v47.2l68.3-41.1l0.2-44L145.9,135.2z M34.3,97.5l0.2,44.2l69.4,41l2-44.8L34.3,97.5z M145.9,135.2v47.2l68.3-41.1l0.2-44
			L145.9,135.2z M34.3,97.5l0.2,44.2l69.4,41l2-44.8L34.3,97.5z M145.9,135.2v47.2l68.3-41.1l0.2-44L145.9,135.2z M34.3,97.5
			l0.2,44.2l69.4,41l2-44.8L34.3,97.5z M145.9,135.2v47.2l68.3-41.1l0.2-44L145.9,135.2z M34.3,97.5l0.2,44.2l69.4,41l2-44.8
			L34.3,97.5z M145.9,135.2v47.2l68.3-41.1l0.2-44L145.9,135.2z M34.3,97.5l0.2,44.2l69.4,41l2-44.8L34.3,97.5z M145.9,135.2v47.2
			l68.3-41.1l0.2-44L145.9,135.2z M34.3,97.5l0.2,44.2l69.4,41l2-44.8L34.3,97.5z M145.9,135.2v47.2l68.3-41.1l0.2-44L145.9,135.2z
			 M34.3,97.5l0.2,44.2l69.4,41l2-44.8L34.3,97.5z M145.9,135.2v47.2l68.3-41.1l0.2-44L145.9,135.2z M34.3,97.5l0.2,44.2l69.4,41
			l2-44.8L34.3,97.5z M145.9,135.2v47.2l68.3-41.1l0.2-44L145.9,135.2z M34.3,97.5l0.2,44.2l69.4,41l2-44.8L34.3,97.5z M145.9,135.2
			v47.2l68.3-41.1l0.2-44L145.9,135.2z M34.3,97.5l0.2,44.2l69.4,41l2-44.8L34.3,97.5z M145.9,135.2v47.2l68.3-41.1l0.2-44
			L145.9,135.2z M34.3,97.5l0.2,44.2l69.4,41l2-44.8L34.3,97.5z M145.9,135.2v47.2l68.3-41.1l0.2-44L145.9,135.2z M34.3,97.5
			l0.2,44.2l69.4,41l2-44.8L34.3,97.5z M145.9,135.2v47.2l68.3-41.1l0.2-44L145.9,135.2z M34.3,97.5l0.2,44.2l69.4,41l2-44.8
			L34.3,97.5z M145.9,135.2v47.2l68.3-41.1l0.2-44L145.9,135.2z M34.3,97.5l0.2,44.2l69.4,41l2-44.8L34.3,97.5z M145.9,135.2v47.2
			l68.3-41.1l0.2-44L145.9,135.2z M34.3,97.5l0.2,44.2l69.4,41l2-44.8L34.3,97.5z M145.9,135.2v47.2l68.3-41.1l0.2-44L145.9,135.2z
			 M34.3,97.5l0.2,44.2l69.4,41l2-44.8L34.3,97.5z M145.9,135.2v47.2l68.3-41.1l0.2-44L145.9,135.2z M34.3,97.5l0.2,44.2l69.4,41
			l2-44.8L34.3,97.5z M145.9,135.2v47.2l68.3-41.1l0.2-44L145.9,135.2z M34.3,97.5l0.2,44.2l69.4,41l2-44.8L34.3,97.5z M145.9,135.2
			v47.2l68.3-41.1l0.2-44L145.9,135.2z M145.9,135.2v47.2l68.3-41.1l0.2-44L145.9,135.2z M34.3,97.5l0.2,44.2l69.4,41l2-44.8
			L34.3,97.5z M34.3,97.5l0.2,44.2l69.4,41l2-44.8L34.3,97.5z M145.9,135.2v47.2l68.3-41.1l0.2-44L145.9,135.2z M145.9,135.2v47.2
			l68.3-41.1l0.2-44L145.9,135.2z M34.3,97.5l0.2,44.2l69.4,41l2-44.8L34.3,97.5z M34.3,97.5l0.2,44.2l69.4,41l2-44.8L34.3,97.5z
			 M145.9,135.2v47.2l68.3-41.1l0.2-44L145.9,135.2z M145.9,135.2v47.2l68.3-41.1l0.2-44L145.9,135.2z M34.3,97.5l0.2,44.2l69.4,41
			l2-44.8L34.3,97.5z M34.3,97.5l0.2,44.2l69.4,41l2-44.8L34.3,97.5z M145.9,135.2v47.2l68.3-41.1l0.2-44L145.9,135.2z M145.9,135.2
			v47.2l68.3-41.1l0.2-44L145.9,135.2z M34.3,97.5l0.2,44.2l69.4,41l2-44.8L34.3,97.5z M233.2,63.4v0.5l0.2-0.5H233.2z M145.9,135.2
			v47.2l68.3-41.1l0.2-44L145.9,135.2z M34.3,97.5l0.2,44.2l69.4,41l2-44.8L34.3,97.5z M34.3,97.5l0.2,44.2l69.4,41l2-44.8
			L34.3,97.5z M145.9,135.2v47.2l68.3-41.1l0.2-44L145.9,135.2z M145.9,135.2v47.2l68.3-41.1l0.2-44L145.9,135.2z M34.3,97.5
			l0.2,44.2l69.4,41l2-44.8L34.3,97.5z M34.3,97.5l0.2,44.2l69.4,41l2-44.8L34.3,97.5z M145.9,135.2v47.2l68.3-41.1l0.2-44
			L145.9,135.2z M145.9,135.2v47.2l68.3-41.1l0.2-44L145.9,135.2z M34.3,97.5l0.2,44.2l69.4,41l2-44.8L34.3,97.5z M34.3,97.5
			l0.2,44.2l69.4,41l2-44.8L34.3,97.5z M145.9,135.2v47.2l68.3-41.1l0.2-44L145.9,135.2z M145.9,135.2v47.2l68.3-41.1l0.2-44
			L145.9,135.2z M34.3,97.5l0.2,44.2l69.4,41l2-44.8L34.3,97.5z M34.3,97.5l0.2,44.2l69.4,41l2-44.8L34.3,97.5z M145.9,135.2v47.2
			l68.3-41.1l0.2-44L145.9,135.2z M145.9,135.2v47.2l68.3-41.1l0.2-44L145.9,135.2z M34.3,97.5l0.2,44.2l69.4,41l2-44.8L34.3,97.5z
			 M145.9,135.2v47.2l68.3-41.1l0.2-44L145.9,135.2z M34.3,97.5l0.2,44.2l69.4,41l2-44.8L34.3,97.5z M145.9,135.2v47.2l68.3-41.1
			l0.2-44L145.9,135.2z M34.3,97.5l0.2,44.2l69.4,41l2-44.8L34.3,97.5z M145.9,135.2v47.2l68.3-41.1l0.2-44L145.9,135.2z M34.3,97.5
			l0.2,44.2l69.4,41l2-44.8L34.3,97.5z M145.9,135.2v47.2l68.3-41.1l0.2-44L145.9,135.2z M34.3,97.5l0.2,44.2l69.4,41l2-44.8
			L34.3,97.5z M145.9,135.2v47.2l68.3-41.1l0.2-44L145.9,135.2z M34.3,97.5l0.2,44.2l69.4,41l2-44.8L34.3,97.5z M145.9,135.2v47.2
			l68.3-41.1l0.2-44L145.9,135.2z M34.3,97.5l0.2,44.2l69.4,41l2-44.8L34.3,97.5z M145.9,135.2v47.2l68.3-41.1l0.2-44L145.9,135.2z
			 M34.3,97.5l0.2,44.2l69.4,41l2-44.8L34.3,97.5z M145.9,135.2v47.2l68.3-41.1l0.2-44L145.9,135.2z M34.3,97.5l0.2,44.2l69.4,41
			l2-44.8L34.3,97.5z M145.9,135.2v47.2l68.3-41.1l0.2-44L145.9,135.2z M34.3,97.5l0.2,44.2l69.4,41l2-44.8L34.3,97.5z M145.9,135.2
			v47.2l68.3-41.1l0.2-44L145.9,135.2z M34.3,97.5l0.2,44.2l69.4,41l2-44.8L34.3,97.5z M145.9,135.2v47.2l68.3-41.1l0.2-44
			L145.9,135.2z M34.3,97.5l0.2,44.2l69.4,41l2-44.8L34.3,97.5z M145.9,135.2v47.2l68.3-41.1l0.2-44L145.9,135.2z M34.3,97.5
			l0.2,44.2l69.4,41l2-44.8L34.3,97.5z M145.9,135.2v47.2l68.3-41.1l0.2-44L145.9,135.2z M34.3,97.5l0.2,44.2l69.4,41l2-44.8
			L34.3,97.5z M145.9,135.2v47.2l68.3-41.1l0.2-44L145.9,135.2z M34.3,97.5l0.2,44.2l69.4,41l2-44.8L34.3,97.5z M145.9,135.2v47.2
			l68.3-41.1l0.2-44L145.9,135.2z M34.3,97.5l0.2,44.2l69.4,41l2-44.8L34.3,97.5z M145.9,135.2v47.2l68.3-41.1l0.2-44L145.9,135.2z
			 M34.3,97.5l0.2,44.2l69.4,41l2-44.8L34.3,97.5z M145.9,135.2v47.2l68.3-41.1l0.2-44L145.9,135.2z M34.3,97.5l0.2,44.2l69.4,41
			l2-44.8L34.3,97.5z M145.9,135.2v47.2l68.3-41.1l0.2-44L145.9,135.2z M34.3,97.5l0.2,44.2l69.4,41l2-44.8L34.3,97.5z M145.9,135.2
			v47.2l68.3-41.1l0.2-44L145.9,135.2z M34.3,97.5l0.2,44.2l69.4,41l2-44.8L34.3,97.5z M145.9,135.2v47.2l68.3-41.1l0.2-44
			L145.9,135.2z M34.3,97.5l0.2,44.2l69.4,41l2-44.8L34.3,97.5z M145.9,135.2v47.2l68.3-41.1l0.2-44L145.9,135.2z M34.3,97.5
			l0.2,44.2l69.4,41l2-44.8L34.3,97.5z M145.9,135.2v47.2l68.3-41.1l0.2-44L145.9,135.2z M145.9,135.2v47.2l68.3-41.1l0.2-44
			L145.9,135.2z M34.3,97.5l0.2,44.2l69.4,41l2-44.8L34.3,97.5z M145.9,135.2v47.2l68.3-41.1l0.2-44L145.9,135.2z M145.9,135.2v47.2
			l68.3-41.1l0.2-44L145.9,135.2z M34.3,97.5l0.2,44.2l69.4,41l2-44.8L34.3,97.5z M145.9,135.2v47.2l68.3-41.1l0.2-44L145.9,135.2z
			 M145.9,135.2v47.2l68.3-41.1l0.2-44L145.9,135.2z M34.3,97.5l0.2,44.2l69.4,41l2-44.8L34.3,97.5z M145.9,135.2v47.2l68.3-41.1
			l0.2-44L145.9,135.2z M34.3,97.5l0.2,44.2l69.4,41l2-44.8L34.3,97.5z M145.9,135.2v47.2l68.3-41.1l0.2-44L145.9,135.2z"/>
		<polygon class="st0" points="122.7,128.5 122.7,247.7 16.7,187.7 16.7,61.4 17.7,64.6 19.6,70.6 26.1,91.1 26.5,146.3 
			111.4,196.5 114.2,134.9 109.8,122.2 		"/>
		<polygon class="st0" points="233.2,63.9 233.2,189.8 130.8,247.7 130.8,128.1 141.4,121.3 138,131.5 137.8,196.7 222.4,146 
			222.4,91.3 229.8,72.4 232.2,66.4 232.2,66.3 		"/>
		<polygon class="st0" points="210.7,52.9 192.8,63 181.9,69.2 153.4,85.4 145.4,109.1 140.6,112.2 126.4,121.3 111.1,113.9 
			106,111.4 97.8,87.8 65.5,68.3 54.7,61.8 38.2,51.8 126.7,2.3 		"/>
		<polygon class="st0" points="233.2,63.4 233.3,63.4 233.2,63.9 		"/>
	</g>
	<g>
		<line class="st0" x1="126.7" y1="125.9" x2="126.7" y2="124.6"/>
	</g>
	<g>
		<polygon class="st0" points="214.5,97.3 214.2,141.3 145.9,182.4 145.9,135.2 		"/>
		<polygon class="st0" points="229.3,51.6 228.3,54.1 226.8,58 225.3,61.7 224.6,63.3 222.2,69.5 215,87.7 149,124.2 160.1,90.9 
			197.5,69.3 198.2,69.3 209,63.2 218.6,57.7 218.6,57.7 222.6,55.5 226.7,53.1 		"/>
		<path class="st0" d="M233.2,63.4v0.5l0.2-0.5H233.2z"/>
	</g>
	<g>
		<polygon class="st0" points="105.9,137.8 103.9,182.7 34.5,141.7 34.3,97.5 		"/>
		<polygon class="st0" points="102.7,126.7 33.3,87.6 27.2,68 25.2,61.5 24.5,59.4 23.3,55.4 22.1,51.6 26,53.9 30,56.4 38.8,61.6 
			49.6,68.1 49.7,68.1 49.8,68.2 91.1,93.2 		"/>
	</g>
</g>
</svg>
