<?xml version="1.0" encoding="utf-8"?>
<!-- Generator: Adobe Illustrator 24.0.1, SVG Export Plug-In . SVG Version: 6.00 Build 0)  -->
<svg version="1.1" id="Layer_1" xmlns="http://www.w3.org/2000/svg" xmlns:xlink="http://www.w3.org/1999/xlink" x="0px" y="0px"
	 viewBox="0 0 250 250" style="enable-background:new 0 0 250 250;" xml:space="preserve">
<style type="text/css">
	.st0{fill:#FFFFFF;}
</style>
<g>
	<path class="st0" d="M143.9,59.4c0,21.2-6.8,40.8-18.5,56.6c-11.6-15.9-18.5-35.4-18.5-56.6c0-21.2,6.8-40.7,18.5-56.6
		C137,18.7,143.9,38.2,143.9,59.4z"/>
	<path class="st0" d="M165.1,160.4c-18.3-10.6-31.8-26.3-39.7-44.4c19.5-2.1,39.9,1.8,58.3,12.4c18.3,10.6,31.8,26.3,39.7,44.3
		C203.8,174.8,183.5,171,165.1,160.4z"/>
	<path class="st0" d="M67,127.6c18.5-10.4,38.9-13.9,58.4-11.6c-8.2,17.9-21.9,33.4-40.4,43.8c-18.5,10.3-38.9,13.9-58.4,11.5
		C34.8,153.5,48.5,137.9,67,127.6z"/>
	<polyline class="st0" points="120.6,125.1 111.6,247.2 134.9,247.2 130,125.1 	"/>
</g>
</svg>
