<?xml version="1.0" encoding="utf-8"?>
<!-- Generator: Adobe Illustrator 24.0.1, SVG Export Plug-In . SVG Version: 6.00 Build 0)  -->
<svg version="1.1" id="Layer_1" xmlns="http://www.w3.org/2000/svg" xmlns:xlink="http://www.w3.org/1999/xlink" x="0px" y="0px"
	 viewBox="0 0 193.6 59.4" style="enable-background:new 0 0 193.6 59.4;" xml:space="preserve">
<style type="text/css">
	.st0{fill:#179F49;}
	.st1{fill:#FFFFFF;}
	.st2{fill:#8BC865;}
	.st3{fill:#1DAA4A;}
	.st4{fill:none;}
	.st5{enable-background:new    ;}
</style>
<path class="st0" d="M163.5,56.6c14.7,0,26.6-11.9,26.6-26.6s-12-26.6-26.6-26.6H29.8C15.1,3.4,3.2,15.3,3.2,30s11.9,26.6,26.6,26.6
	H163.5z"/>
<path class="st1" d="M159.9,7.5H33.4C19.5,7.5,8.3,17.6,8.3,30h176.8C185,17.6,173.8,7.5,159.9,7.5z"/>
<path class="st2" d="M160.1,8.5L34.5,8.4c-13,0-26.2,9.7-26.2,21.6h176.8C185,18.1,173.2,8.5,160.1,8.5z"/>
<path class="st3" d="M8.3,30c0,12.4,11.3,22.5,25.1,22.5h126.5c13.9,0,25.1-10.1,25.1-22.5l0,0H8.3z"/>
<rect x="27.2" y="21.5" class="st4" width="147.4" height="18.8"/>
<g class="st5">
	<path class="st1" d="M57.5,38.1c-0.7,0.3-2.2,0.7-4.1,0.7c-5.6,0-8.5-3.5-8.5-8.1c0-5.5,3.9-8.6,8.8-8.6c1.9,0,3.3,0.4,4,0.7
		l-0.7,2.9c-0.7-0.3-1.8-0.6-3.1-0.6c-2.9,0-5.2,1.8-5.2,5.3c0,3.2,1.9,5.3,5.2,5.3c1.1,0,2.3-0.2,3-0.5L57.5,38.1z"/>
	<path class="st1" d="M73.9,30.3c0,5.3-3.2,8.5-7.9,8.5c-4.8,0-7.6-3.6-7.6-8.2c0-4.8,3.1-8.5,7.9-8.5
		C71.2,22.1,73.9,25.8,73.9,30.3z M62.3,30.5c0,3.2,1.5,5.4,3.9,5.4c2.5,0,3.9-2.4,3.9-5.5c0-2.9-1.4-5.4-3.9-5.4
		C63.7,25,62.3,27.4,62.3,30.5z"/>
	<path class="st1" d="M76.3,38.5V22.4h4.3l3.4,5.9c1,1.7,1.9,3.7,2.6,5.5h0.1c-0.2-2.1-0.3-4.3-0.3-6.7v-4.7h3.4v16.2h-3.8l-3.5-6.2
		c-1-1.7-2-3.8-2.8-5.7l-0.1,0c0.1,2.1,0.1,4.4,0.1,7.1v4.9H76.3z"/>
	<path class="st1" d="M96,25.4h-4.3v-3.1h12.4v3.1h-4.4v13.1H96V25.4z"/>
	<path class="st1" d="M109.7,22.4v16.2H106V22.4H109.7z"/>
	<path class="st1" d="M112.9,38.5V22.4h4.3l3.4,5.9c1,1.7,1.9,3.7,2.6,5.5h0.1c-0.2-2.1-0.3-4.3-0.3-6.7v-4.7h3.4v16.2h-3.8
		l-3.5-6.2c-1-1.7-2-3.8-2.8-5.7l-0.1,0c0.1,2.1,0.1,4.4,0.1,7.1v4.9H112.9z"/>
	<path class="st1" d="M133.1,22.4v9.3c0,2.8,1.1,4.2,2.9,4.2c1.9,0,3-1.3,3-4.2v-9.3h3.6v9.1c0,5-2.5,7.4-6.7,7.4
		c-4.1,0-6.5-2.3-6.5-7.4v-9H133.1z"/>
	<path class="st1" d="M155.4,31.7h-5.9v3.8h6.6v3h-10.3V22.4h10v3h-6.3v3.4h5.9V31.7z"/>
</g>
</svg>
