<?xml version="1.0" encoding="utf-8"?>
<!-- Generator: Adobe Illustrator 24.0.1, SVG Export Plug-In . SVG Version: 6.00 Build 0)  -->
<svg version="1.1" id="Layer_1" xmlns="http://www.w3.org/2000/svg" xmlns:xlink="http://www.w3.org/1999/xlink" x="0px" y="0px"
	 viewBox="0 0 200 200" style="enable-background:new 0 0 200 200;" xml:space="preserve">
<style type="text/css">
	.st0{fill:#0274AF;}
</style>
<g>
	<g>
		<polygon class="st0" points="185.8,50.4 185.7,50.8 185.7,50.4 		"/>
		<polygon class="st0" points="185.7,50.4 185.8,50.4 185.7,50.8 		"/>
	</g>
	<g>
		<path class="st0" d="M25.8,77.7l0.2,35.5l55.8,33l1.6-36L25.8,77.7z M25.8,77.7l0.2,35.5l55.8,33l1.6-36L25.8,77.7z M115.6,108.1
			V146l54.9-33.1l0.2-35.4L115.6,108.1z M115.6,108.1V146l54.9-33.1l0.2-35.4L115.6,108.1z M25.8,77.7l0.2,35.5l55.8,33l1.6-36
			L25.8,77.7z M115.6,108.1V146l54.9-33.1l0.2-35.4L115.6,108.1z M115.6,108.1V146l54.9-33.1l0.2-35.4L115.6,108.1z M25.8,77.7
			l0.2,35.5l55.8,33l1.6-36L25.8,77.7z M115.6,108.1V146l54.9-33.1l0.2-35.4L115.6,108.1z M115.6,108.1V146l54.9-33.1l0.2-35.4
			L115.6,108.1z M25.8,77.7l0.2,35.5l55.8,33l1.6-36L25.8,77.7z M115.6,108.1V146l54.9-33.1l0.2-35.4L115.6,108.1z M115.6,108.1V146
			l54.9-33.1l0.2-35.4L115.6,108.1z M25.8,77.7l0.2,35.5l55.8,33l1.6-36L25.8,77.7z M115.6,108.1V146l54.9-33.1l0.2-35.4
			L115.6,108.1z M25.8,77.7l0.2,35.5l55.8,33l1.6-36L25.8,77.7z M115.6,108.1V146l54.9-33.1l0.2-35.4L115.6,108.1z M25.8,77.7
			l0.2,35.5l55.8,33l1.6-36L25.8,77.7z M115.6,108.1V146l54.9-33.1l0.2-35.4L115.6,108.1z M25.8,77.7l0.2,35.5l55.8,33l1.6-36
			L25.8,77.7z M115.6,108.1V146l54.9-33.1l0.2-35.4L115.6,108.1z M25.8,77.7l0.2,35.5l55.8,33l1.6-36L25.8,77.7z M115.6,108.1V146
			l54.9-33.1l0.2-35.4L115.6,108.1z M25.8,77.7l0.2,35.5l55.8,33l1.6-36L25.8,77.7z M115.6,108.1V146l54.9-33.1l0.2-35.4
			L115.6,108.1z M25.8,77.7l0.2,35.5l55.8,33l1.6-36L25.8,77.7z M115.6,108.1V146l54.9-33.1l0.2-35.4L115.6,108.1z M25.8,77.7
			l0.2,35.5l55.8,33l1.6-36L25.8,77.7z M115.6,108.1V146l54.9-33.1l0.2-35.4L115.6,108.1z M25.8,77.7l0.2,35.5l55.8,33l1.6-36
			L25.8,77.7z M115.6,108.1V146l54.9-33.1l0.2-35.4L115.6,108.1z M25.8,77.7l0.2,35.5l55.8,33l1.6-36L25.8,77.7z M115.6,108.1V146
			l54.9-33.1l0.2-35.4L115.6,108.1z M25.8,77.7l0.2,35.5l55.8,33l1.6-36L25.8,77.7z M115.6,108.1V146l54.9-33.1l0.2-35.4
			L115.6,108.1z M25.8,77.7l0.2,35.5l55.8,33l1.6-36L25.8,77.7z M115.6,108.1V146l54.9-33.1l0.2-35.4L115.6,108.1z M25.8,77.7
			l0.2,35.5l55.8,33l1.6-36L25.8,77.7z M115.6,108.1V146l54.9-33.1l0.2-35.4L115.6,108.1z M25.8,77.7l0.2,35.5l55.8,33l1.6-36
			L25.8,77.7z M115.6,108.1V146l54.9-33.1l0.2-35.4L115.6,108.1z M25.8,77.7l0.2,35.5l55.8,33l1.6-36L25.8,77.7z M115.6,108.1V146
			l54.9-33.1l0.2-35.4L115.6,108.1z M25.8,77.7l0.2,35.5l55.8,33l1.6-36L25.8,77.7z M115.6,108.1V146l54.9-33.1l0.2-35.4
			L115.6,108.1z M25.8,77.7l0.2,35.5l55.8,33l1.6-36L25.8,77.7z M115.6,108.1V146l54.9-33.1l0.2-35.4L115.6,108.1z M25.8,77.7
			l0.2,35.5l55.8,33l1.6-36L25.8,77.7z M115.6,108.1V146l54.9-33.1l0.2-35.4L115.6,108.1z M25.8,77.7l0.2,35.5l55.8,33l1.6-36
			L25.8,77.7z M115.6,108.1V146l54.9-33.1l0.2-35.4L115.6,108.1z M25.8,77.7l0.2,35.5l55.8,33l1.6-36L25.8,77.7z M115.6,108.1V146
			l54.9-33.1l0.2-35.4L115.6,108.1z M25.8,77.7l0.2,35.5l55.8,33l1.6-36L25.8,77.7z M115.6,108.1V146l54.9-33.1l0.2-35.4
			L115.6,108.1z M25.8,77.7l0.2,35.5l55.8,33l1.6-36L25.8,77.7z M115.6,108.1V146l54.9-33.1l0.2-35.4L115.6,108.1z M115.6,108.1V146
			l54.9-33.1l0.2-35.4L115.6,108.1z M25.8,77.7l0.2,35.5l55.8,33l1.6-36L25.8,77.7z M25.8,77.7l0.2,35.5l55.8,33l1.6-36L25.8,77.7z
			 M115.6,108.1V146l54.9-33.1l0.2-35.4L115.6,108.1z M115.6,108.1V146l54.9-33.1l0.2-35.4L115.6,108.1z M25.8,77.7l0.2,35.5
			l55.8,33l1.6-36L25.8,77.7z M25.8,77.7l0.2,35.5l55.8,33l1.6-36L25.8,77.7z M115.6,108.1V146l54.9-33.1l0.2-35.4L115.6,108.1z
			 M115.6,108.1V146l54.9-33.1l0.2-35.4L115.6,108.1z M25.8,77.7l0.2,35.5l55.8,33l1.6-36L25.8,77.7z M25.8,77.7l0.2,35.5l55.8,33
			l1.6-36L25.8,77.7z M115.6,108.1V146l54.9-33.1l0.2-35.4L115.6,108.1z M115.6,108.1V146l54.9-33.1l0.2-35.4L115.6,108.1z
			 M25.8,77.7l0.2,35.5l55.8,33l1.6-36L25.8,77.7z M185.7,50.4v0.4l0.1-0.4H185.7z M115.6,108.1V146l54.9-33.1l0.2-35.4L115.6,108.1
			z M25.8,77.7l0.2,35.5l55.8,33l1.6-36L25.8,77.7z M25.8,77.7l0.2,35.5l55.8,33l1.6-36L25.8,77.7z M115.6,108.1V146l54.9-33.1
			l0.2-35.4L115.6,108.1z M115.6,108.1V146l54.9-33.1l0.2-35.4L115.6,108.1z M25.8,77.7l0.2,35.5l55.8,33l1.6-36L25.8,77.7z
			 M25.8,77.7l0.2,35.5l55.8,33l1.6-36L25.8,77.7z M115.6,108.1V146l54.9-33.1l0.2-35.4L115.6,108.1z M115.6,108.1V146l54.9-33.1
			l0.2-35.4L115.6,108.1z M25.8,77.7l0.2,35.5l55.8,33l1.6-36L25.8,77.7z M25.8,77.7l0.2,35.5l55.8,33l1.6-36L25.8,77.7z
			 M115.6,108.1V146l54.9-33.1l0.2-35.4L115.6,108.1z M115.6,108.1V146l54.9-33.1l0.2-35.4L115.6,108.1z M25.8,77.7l0.2,35.5
			l55.8,33l1.6-36L25.8,77.7z M25.8,77.7l0.2,35.5l55.8,33l1.6-36L25.8,77.7z M115.6,108.1V146l54.9-33.1l0.2-35.4L115.6,108.1z
			 M115.6,108.1V146l54.9-33.1l0.2-35.4L115.6,108.1z M25.8,77.7l0.2,35.5l55.8,33l1.6-36L25.8,77.7z M115.6,108.1V146l54.9-33.1
			l0.2-35.4L115.6,108.1z M25.8,77.7l0.2,35.5l55.8,33l1.6-36L25.8,77.7z M115.6,108.1V146l54.9-33.1l0.2-35.4L115.6,108.1z
			 M25.8,77.7l0.2,35.5l55.8,33l1.6-36L25.8,77.7z M115.6,108.1V146l54.9-33.1l0.2-35.4L115.6,108.1z M25.8,77.7l0.2,35.5l55.8,33
			l1.6-36L25.8,77.7z M115.6,108.1V146l54.9-33.1l0.2-35.4L115.6,108.1z M25.8,77.7l0.2,35.5l55.8,33l1.6-36L25.8,77.7z
			 M115.6,108.1V146l54.9-33.1l0.2-35.4L115.6,108.1z M25.8,77.7l0.2,35.5l55.8,33l1.6-36L25.8,77.7z M115.6,108.1V146l54.9-33.1
			l0.2-35.4L115.6,108.1z M25.8,77.7l0.2,35.5l55.8,33l1.6-36L25.8,77.7z M115.6,108.1V146l54.9-33.1l0.2-35.4L115.6,108.1z
			 M25.8,77.7l0.2,35.5l55.8,33l1.6-36L25.8,77.7z M115.6,108.1V146l54.9-33.1l0.2-35.4L115.6,108.1z M25.8,77.7l0.2,35.5l55.8,33
			l1.6-36L25.8,77.7z M115.6,108.1V146l54.9-33.1l0.2-35.4L115.6,108.1z M25.8,77.7l0.2,35.5l55.8,33l1.6-36L25.8,77.7z
			 M115.6,108.1V146l54.9-33.1l0.2-35.4L115.6,108.1z M25.8,77.7l0.2,35.5l55.8,33l1.6-36L25.8,77.7z M115.6,108.1V146l54.9-33.1
			l0.2-35.4L115.6,108.1z M25.8,77.7l0.2,35.5l55.8,33l1.6-36L25.8,77.7z M115.6,108.1V146l54.9-33.1l0.2-35.4L115.6,108.1z
			 M25.8,77.7l0.2,35.5l55.8,33l1.6-36L25.8,77.7z M115.6,108.1V146l54.9-33.1l0.2-35.4L115.6,108.1z M25.8,77.7l0.2,35.5l55.8,33
			l1.6-36L25.8,77.7z M115.6,108.1V146l54.9-33.1l0.2-35.4L115.6,108.1z M25.8,77.7l0.2,35.5l55.8,33l1.6-36L25.8,77.7z
			 M115.6,108.1V146l54.9-33.1l0.2-35.4L115.6,108.1z M25.8,77.7l0.2,35.5l55.8,33l1.6-36L25.8,77.7z M115.6,108.1V146l54.9-33.1
			l0.2-35.4L115.6,108.1z M25.8,77.7l0.2,35.5l55.8,33l1.6-36L25.8,77.7z M115.6,108.1V146l54.9-33.1l0.2-35.4L115.6,108.1z
			 M25.8,77.7l0.2,35.5l55.8,33l1.6-36L25.8,77.7z M115.6,108.1V146l54.9-33.1l0.2-35.4L115.6,108.1z M25.8,77.7l0.2,35.5l55.8,33
			l1.6-36L25.8,77.7z M115.6,108.1V146l54.9-33.1l0.2-35.4L115.6,108.1z M25.8,77.7l0.2,35.5l55.8,33l1.6-36L25.8,77.7z
			 M115.6,108.1V146l54.9-33.1l0.2-35.4L115.6,108.1z M25.8,77.7l0.2,35.5l55.8,33l1.6-36L25.8,77.7z M115.6,108.1V146l54.9-33.1
			l0.2-35.4L115.6,108.1z M25.8,77.7l0.2,35.5l55.8,33l1.6-36L25.8,77.7z M115.6,108.1V146l54.9-33.1l0.2-35.4L115.6,108.1z
			 M115.6,108.1V146l54.9-33.1l0.2-35.4L115.6,108.1z M25.8,77.7l0.2,35.5l55.8,33l1.6-36L25.8,77.7z M115.6,108.1V146l54.9-33.1
			l0.2-35.4L115.6,108.1z M115.6,108.1V146l54.9-33.1l0.2-35.4L115.6,108.1z M25.8,77.7l0.2,35.5l55.8,33l1.6-36L25.8,77.7z
			 M115.6,108.1V146l54.9-33.1l0.2-35.4L115.6,108.1z M115.6,108.1V146l54.9-33.1l0.2-35.4L115.6,108.1z M25.8,77.7l0.2,35.5
			l55.8,33l1.6-36L25.8,77.7z M115.6,108.1V146l54.9-33.1l0.2-35.4L115.6,108.1z M25.8,77.7l0.2,35.5l55.8,33l1.6-36L25.8,77.7z
			 M115.6,108.1V146l54.9-33.1l0.2-35.4L115.6,108.1z"/>
		<polygon class="st0" points="96.9,102.7 96.9,198.5 11.7,150.3 11.7,48.7 12.5,51.3 14,56.1 19.2,72.6 19.6,117 87.8,157.3 
			90,107.8 86.5,97.6 		"/>
		<polygon class="st0" points="185.7,50.8 185.7,151.9 103.4,198.5 103.4,102.3 111.9,96.9 109.2,105.1 109,157.5 177,116.7 
			177,72.8 183,57.5 184.9,52.8 184.9,52.7 		"/>
		<polygon class="st0" points="167.6,41.9 153.2,50 144.5,55 121.5,68 115.2,87.1 111.3,89.5 99.9,96.9 87.5,90.9 83.5,89 76.9,70 
			50.9,54.3 42.2,49.1 29,41 100.1,1.3 		"/>
		<polygon class="st0" points="185.7,50.4 185.8,50.4 185.7,50.8 		"/>
	</g>
	<g>
		<line class="st0" x1="100.1" y1="100.6" x2="100.1" y2="99.5"/>
	</g>
	<g>
		<polygon class="st0" points="170.7,77.6 170.5,113 115.6,146 115.6,108.1 		"/>
		<polygon class="st0" points="182.6,40.9 181.8,42.8 180.5,46 179.3,49 178.8,50.3 176.9,55.3 171.1,69.9 118,99.2 126.9,72.4 
			157,55.1 157.5,55.1 166.2,50.2 173.9,45.8 174,45.8 177.2,44 180.5,42.1 		"/>
		<path class="st0" d="M185.7,50.4v0.4l0.1-0.4H185.7z"/>
	</g>
	<g>
		<polygon class="st0" points="83.4,110.2 81.8,146.2 26,113.2 25.8,77.7 		"/>
		<polygon class="st0" points="80.8,101.2 25,69.8 20.1,54 18.5,48.8 18,47.2 17,43.9 16,40.8 19.2,42.7 22.4,44.7 29.4,48.9 
			38.1,54.1 38.2,54.1 38.3,54.2 71.5,74.3 		"/>
	</g>
</g>
</svg>
