<?xml version="1.0" encoding="utf-8"?>
<!-- Generator: Adobe Illustrator 24.0.1, SVG Export Plug-In . SVG Version: 6.00 Build 0)  -->
<svg version="1.1" id="Layer_1" xmlns="http://www.w3.org/2000/svg" xmlns:xlink="http://www.w3.org/1999/xlink" x="0px" y="0px"
	 viewBox="0 0 200 59.7" style="enable-background:new 0 0 200 59.7;" xml:space="preserve">
<style type="text/css">
	.st0{fill:#9A9234;}
	.st1{fill:#FFFFFF;}
	.st2{fill:#C6C465;}
	.st3{fill:#B1A63F;}
	.st4{fill:#FFFFFF;stroke:#A4A837;stroke-miterlimit:10;}
	.st5{fill:none;stroke:#A4A837;stroke-width:2;stroke-miterlimit:10;}
</style>
<path class="st0" d="M168.3,57.5c14.7,0,26.6-11.9,26.6-26.6S182.9,4.3,168.3,4.3H34.6C19.9,4.3,8,16.2,8,30.9s11.9,26.6,26.6,26.6
	H168.3z"/>
<path class="st1" d="M164.7,8.4H38.2c-13.9,0-25.2,10.1-25.2,22.5h176.8C189.8,18.5,178.6,8.4,164.7,8.4z"/>
<path class="st2" d="M164.9,9.4L39.3,9.3c-13,0-26.2,9.7-26.2,21.6h176.8C189.8,19,178,9.4,164.9,9.4z"/>
<path class="st3" d="M13.1,30.9c0,12.4,11.3,22.5,25.2,22.5h126.5c13.9,0,25.2-10.1,25.2-22.5v0H13.1z"/>
<g>
	<g>
		<path class="st1" d="M37.2,19.5c1-0.2,2.2-0.2,3.5-0.2c2.2,0,3.6,0.4,4.7,1.2c1.2,0.9,2,2.3,2,4.4c0,2.2-0.8,3.7-1.9,4.7
			c-1.2,1-3.1,1.5-5.3,1.5c-1.4,0-2.3-0.1-3-0.2V19.5z M39.8,29c0.2,0.1,0.6,0.1,0.9,0.1c2.4,0,3.9-1.3,3.9-4c0-2.4-1.4-3.7-3.6-3.7
			c-0.6,0-1,0.1-1.2,0.1V29z"/>
		<path class="st1" d="M59.7,25c0,3.8-2.3,6.1-5.7,6.1c-3.4,0-5.4-2.6-5.4-5.9c0-3.5,2.2-6,5.6-6C57.8,19.2,59.7,21.9,59.7,25z
			 M51.4,25.2c0,2.3,1.1,3.9,2.8,3.9c1.8,0,2.8-1.7,2.8-3.9c0-2.1-1-3.9-2.8-3.9C52.4,21.3,51.4,23,51.4,25.2z"/>
		<path class="st1" d="M63.2,30.9l-2.7-11.5h2.8l0.9,4.8c0.3,1.4,0.5,2.9,0.7,4h0c0.2-1.3,0.5-2.6,0.8-4.1l1-4.7h2.8l0.9,4.9
			c0.3,1.4,0.4,2.6,0.6,3.9h0c0.2-1.3,0.4-2.6,0.7-4l0.9-4.7h2.7l-3,11.5h-2.8l-1-5c-0.2-1.2-0.4-2.2-0.5-3.6h0
			c-0.2,1.3-0.4,2.4-0.7,3.6l-1.1,5H63.2z"/>
		<path class="st1" d="M76.5,30.9V19.4h3.1l2.4,4.2c0.7,1.2,1.4,2.7,1.9,4h0.1c-0.2-1.5-0.2-3.1-0.2-4.8v-3.4h2.4v11.5h-2.7
			l-2.5-4.5c-0.7-1.2-1.4-2.7-2-4.1l-0.1,0c0.1,1.5,0.1,3.2,0.1,5v3.5H76.5z"/>
		<path class="st1" d="M88.3,19.4H91v9.4h4.6v2.2h-7.2V19.4z"/>
		<path class="st1" d="M107,25c0,3.8-2.3,6.1-5.7,6.1c-3.4,0-5.4-2.6-5.4-5.9c0-3.5,2.2-6,5.6-6C105.1,19.2,107,21.9,107,25z
			 M98.7,25.2c0,2.3,1.1,3.9,2.8,3.9c1.8,0,2.8-1.7,2.8-3.9c0-2.1-1-3.9-2.8-3.9C99.7,21.3,98.7,23,98.7,25.2z"/>
		<path class="st1" d="M111.1,28l-0.8,3h-2.7l3.5-11.5h3.4l3.6,11.5h-2.8l-0.9-3H111.1z M114.1,26l-0.7-2.5
			c-0.2-0.7-0.4-1.5-0.6-2.2h0c-0.2,0.7-0.3,1.6-0.5,2.2l-0.7,2.5H114.1z"/>
		<path class="st1" d="M119.7,19.5c1-0.2,2.2-0.2,3.5-0.2c2.2,0,3.6,0.4,4.7,1.2c1.2,0.9,2,2.3,2,4.4c0,2.2-0.8,3.7-1.9,4.7
			c-1.2,1-3.1,1.5-5.3,1.5c-1.4,0-2.3-0.1-3-0.2V19.5z M122.3,29c0.2,0.1,0.6,0.1,0.9,0.1c2.4,0,3.9-1.3,3.9-4
			c0-2.4-1.4-3.7-3.6-3.7c-0.6,0-1,0.1-1.2,0.1V29z"/>
		<path class="st1" d="M35.6,33.2c0.7-0.1,2.1-0.2,3.4-0.2c1.6,0,2.6,0.2,3.4,0.7c0.8,0.4,1.4,1.2,1.4,2.3c0,1-0.6,2-1.9,2.5v0
			c1.3,0.4,2.3,1.4,2.3,2.8c0,1-0.5,1.9-1.2,2.5c-0.8,0.7-2.2,1-4.5,1c-1.3,0-2.2-0.1-2.8-0.2V33.2z M38.2,37.7h0.9
			c1.4,0,2.1-0.6,2.1-1.4c0-0.9-0.7-1.3-1.9-1.3c-0.6,0-0.9,0-1.1,0.1V37.7z M38.2,42.8c0.3,0,0.6,0,1,0c1.2,0,2.2-0.4,2.2-1.7
			c0-1.2-1-1.6-2.3-1.6h-0.9V42.8z"/>
		<path class="st1" d="M46,33.2c0.8-0.1,2.1-0.2,3.5-0.2c1.7,0,2.9,0.3,3.7,0.9c0.7,0.5,1.1,1.4,1.1,2.4c0,1.5-1,2.5-2,2.8v0.1
			c0.8,0.3,1.3,1.1,1.5,2.2c0.4,1.3,0.7,2.8,0.9,3.3H52c-0.2-0.3-0.5-1.3-0.8-2.7c-0.3-1.4-0.8-1.8-1.9-1.9h-0.8v4.5H46V33.2z
			 M48.6,38.2h1c1.3,0,2.1-0.7,2.1-1.7c0-1.1-0.7-1.6-1.9-1.6c-0.6,0-1,0.1-1.2,0.1V38.2z"/>
		<path class="st1" d="M66.7,38.8c0,3.8-2.3,6.1-5.7,6.1c-3.4,0-5.4-2.6-5.4-5.9c0-3.5,2.2-6,5.6-6C64.7,32.9,66.7,35.6,66.7,38.8z
			 M58.3,38.9c0,2.3,1.1,3.9,2.8,3.9c1.8,0,2.8-1.7,2.8-3.9c0-2.1-1-3.9-2.8-3.9C59.3,35,58.3,36.7,58.3,38.9z"/>
		<path class="st1" d="M68.4,44.6V33.1h3.1l2.4,4.2c0.7,1.2,1.4,2.7,1.9,4h0.1c-0.2-1.5-0.2-3.1-0.2-4.8v-3.4h2.4v11.5h-2.7
			l-2.5-4.5c-0.7-1.2-1.4-2.7-2-4.1l-0.1,0c0.1,1.5,0.1,3.2,0.1,5v3.5H68.4z"/>
		<path class="st1" d="M88.7,44.3c-0.5,0.2-1.6,0.5-3,0.5c-4,0-6-2.5-6-5.8c0-3.9,2.8-6.1,6.3-6.1c1.4,0,2.4,0.3,2.8,0.5l-0.5,2.1
			c-0.5-0.2-1.3-0.4-2.2-0.4c-2.1,0-3.7,1.3-3.7,3.8c0,2.3,1.4,3.8,3.7,3.8c0.8,0,1.7-0.2,2.2-0.4L88.7,44.3z"/>
		<path class="st1" d="M93,33.1v4.4h4.3v-4.4h2.6v11.5h-2.6v-4.8H93v4.8h-2.6V33.1H93z"/>
		<path class="st1" d="M104.8,33.1v6.6c0,2,0.8,3,2.1,3c1.4,0,2.1-1,2.1-3v-6.6h2.6v6.5c0,3.6-1.8,5.3-4.8,5.3
			c-2.9,0-4.6-1.6-4.6-5.3v-6.4H104.8z"/>
		<path class="st1" d="M113.9,33.2c0.8-0.1,2.1-0.2,3.5-0.2c1.7,0,2.9,0.3,3.7,0.9c0.7,0.5,1.1,1.4,1.1,2.4c0,1.5-1,2.5-2,2.8v0.1
			c0.8,0.3,1.3,1.1,1.5,2.2c0.4,1.3,0.7,2.8,0.9,3.3h-2.7c-0.2-0.3-0.5-1.3-0.8-2.7c-0.3-1.4-0.8-1.8-1.9-1.9h-0.8v4.5h-2.6V33.2z
			 M116.5,38.2h1c1.3,0,2.1-0.7,2.1-1.7c0-1.1-0.7-1.6-1.9-1.6c-0.6,0-1,0.1-1.2,0.1V38.2z"/>
		<path class="st1" d="M130.9,39.8h-4.2v2.7h4.7v2.1H124V33.1h7.1v2.1h-4.5v2.4h4.2V39.8z"/>
	</g>
</g>
<path class="st4" d="M186.1,30.9c0,10.4-8.4,18.8-18.8,18.8c-10.4,0-18.8-8.4-18.8-18.8c0-10.4,8.4-18.8,18.8-18.8
	C177.7,12.1,186.1,20.5,186.1,30.9z"/>
<polyline class="st5" points="178.3,25.8 167.9,32.2 157.5,25.8 "/>
<polyline class="st5" points="178.3,34.1 167.9,40.6 157.5,34.1 "/>
</svg>
