<?xml version="1.0" encoding="utf-8"?>
<!-- Generator: Adobe Illustrator 24.0.1, SVG Export Plug-In . SVG Version: 6.00 Build 0)  -->
<svg version="1.1" id="Layer_1" xmlns="http://www.w3.org/2000/svg" xmlns:xlink="http://www.w3.org/1999/xlink" x="0px" y="0px"
	 viewBox="0 0 200 200" style="enable-background:new 0 0 200 200;" xml:space="preserve">
<style type="text/css">
	.st0{fill:#ED1C24;}
</style>
<g>
	<path class="st0" d="M114.2,47.5c0,16.9-5.5,32.5-14.8,45.1C90.2,80,84.7,64.4,84.7,47.5c0-16.9,5.5-32.5,14.7-45.2
		C108.7,15,114.2,30.6,114.2,47.5z"/>
	<path class="st0" d="M131.2,128c-14.6-8.5-25.4-21-31.7-35.4c15.6-1.7,31.9,1.4,46.5,9.9c14.6,8.5,25.4,21,31.7,35.4
		C162,139.6,145.8,136.5,131.2,128z"/>
	<path class="st0" d="M52.8,101.9c14.7-8.3,31-11.1,46.6-9.2c-6.5,14.3-17.4,26.7-32.2,34.9c-14.7,8.2-31,11.1-46.6,9.2
		C27.2,122.5,38.1,110.1,52.8,101.9z"/>
	<polyline class="st0" points="95.6,100 88.4,197.3 107,197.3 103.1,100 	"/>
</g>
</svg>
