<?xml version="1.0" encoding="utf-8"?>
<!-- Generator: Adobe Illustrator 24.0.1, SVG Export Plug-In . SVG Version: 6.00 Build 0)  -->
<svg version="1.1" id="Layer_1" xmlns="http://www.w3.org/2000/svg" xmlns:xlink="http://www.w3.org/1999/xlink" x="0px" y="0px"
	 viewBox="0 0 200 200" style="enable-background:new 0 0 200 200;" xml:space="preserve">
<style type="text/css">
	.st0{fill:#FFFFFF;}
</style>
<g>
	<path class="st0" d="M38,151.6c9.2,10.4,32,19.7,43,17.9c0-3.2,0-6.5,0-9.8c0-2.3,0.8-4.2,3.3-4.3c2.8-0.1,3.6,1.9,3.6,4.4
		c0,3.3,0,6.6,0,10.1c7.8,0,14.8-1.6,21.4-4.4c4.5-1.9,8.8-4.3,13.1-6.7c4.3-2.4,8.2-1.9,10.5,1.6c2.4,3.7,1.4,7.7-2.8,10.5
		c-16.5,10.7-34.6,15.5-54.2,13.1c-32.1-3.9-55.1-20.8-68.2-50.4c-19.6-44.3,4.7-97.4,51.1-111.8c3.1-1,3.9-2.3,3.8-5.3
		c-0.2-3.4,0-6.9-0.1-10.3c-0.1-2.7,0.9-4,3.8-4c12.1,0,24.2,0,36.3,0c2.8,0,3.9,1.2,3.8,4c-0.1,3.8,0.1,7.5-0.1,11.3
		c-0.1,2.4,0.7,3.4,3,4.1c21.6,6.8,37.8,20.4,48.6,40.2c2.3,4.3,4.1,8.9,5.8,13.5c1.6,4.3-0.3,8.4-4.3,9.8c-3.8,1.4-7.8-0.7-9.3-5.3
		c-2.7-8.1-6.7-15.5-12.1-22.1c-0.7-0.9-1.5-1.7-3.1-3.4c-2.2,2.6-4.2,5.1-6.4,7.5c-1.7,1.9-3.8,2.9-5.9,0.8c-2-2.1-0.8-4,0.9-5.6
		c2.3-2.2,4.7-4.3,7.4-6.8c-12.7-11.1-26.5-17.1-43.1-18c0,3.6,0,6.8,0,9.9c0,2.4-0.6,4.6-3.4,4.6c-3,0-3.6-2.2-3.6-4.7
		c0.1-3.1,0-6.1,0-9.7C64.5,33,50.8,39.2,38.3,49.8c2.4,2.5,4.6,4.7,6.9,6.9c1.7,1.7,3.3,3.6,1.1,5.8c-2.3,2.3-4.4,0.9-6.2-1
		c-2.1-2.2-4.1-4.5-6.4-7C26,63,21.1,71.8,18.3,81.9c-1.1,4.2-1.6,8.5-2.4,12.8c-0.4,2.2,0.3,3.2,2.7,3.1c2.6-0.2,5.3-0.1,7.9,0
		c2.2,0.1,3.8,1.1,3.8,3.5c0,2.4-1.6,3.4-3.9,3.4c-3.4,0-6.8,0-10.6,0c0.8,16.6,6.8,30.5,18,43.4c2.4-2.8,4.6-5.3,6.8-7.7
		c1.6-1.8,3.6-2.7,5.7-0.7c2.1,2.1,1,4-0.8,5.6C43,147.5,40.5,149.6,38,151.6z"/>
	<path class="st0" d="M89.3,103.1c0-6.4-0.1-12.8,0-19.2c0.1-8.3,5.9-14.1,14-14.1c7.8,0,13.9,5.7,14,13.8c0.2,13,0.2,26,0,39
		c-0.1,8.2-6.2,13.8-14.4,13.7c-7.9-0.1-13.5-5.9-13.6-14.1C89.2,115.9,89.3,109.5,89.3,103.1z M98.8,102.9
		C98.8,102.9,98.7,102.9,98.8,102.9c0,6.2-0.1,12.3,0,18.5c0,3.8,1.5,5.6,4.4,5.7c3,0.1,4.8-2,4.8-5.7c0-12.2,0-24.4,0-36.6
		c0-3.5-1.7-5.6-4.6-5.6c-2.9,0-4.5,1.9-4.5,5.6C98.7,90.9,98.8,96.9,98.8,102.9z"/>
	<path class="st0" d="M65.3,80.9c-2.5,1.8-5.1,3.7-7.6,5.5c-2.2-4.6-1.1-8.8,2.3-11.6c3.8-3.2,7.9-5.2,13.1-4.5
		c1.9,0.3,2.6,0.8,2.6,2.7c0,20.1,0,40.2,0,60.3c0,2.1-0.6,2.9-2.8,2.8c-2-0.1-4.1,0-6.5,0c0-18.5,0-36.6,0-54.7
		C66,81.2,65.6,81.1,65.3,80.9z"/>
	<path class="st0" d="M150.3,123.3c0,2.7-0.1,5.5,0,8.2c0.1,1.9-0.7,3-2.5,2.5c-0.9-0.3-2.2-1.5-2.2-2.4c-0.2-4.6,0-9.1-0.2-13.7
		c0-1.2-0.5-2.5-1.1-3.4c-0.3-0.5-2-0.6-2.4-0.2c-0.8,0.6-1.4,1.8-1.5,2.8c-0.2,4.6-0.1,9.1-0.1,13.7c0,1.8,0.1,3.4-2.6,3.4
		c-2.5,0-2.3-1.6-2.3-3.2c0-4.5,0-8.9,0-13.4c0-1.8-0.3-3.9-2.6-3.5c-1,0.2-2.2,2.2-2.3,3.4c-0.3,4.4-0.1,8.9-0.1,13.3
		c0,1.9,0,3.3-2.6,3.3c-2.4,0-2.4-1.4-2.4-3.1c0-6.3,0-12.6,0-18.8c0-3,1.6-4,4.4-2.8c0.6,0.3,1.6,0.9,1.9,0.6
		c2.6-1.8,4.8-1.4,7.2,0.4c0.5,0.4,1.8-0.2,2.7-0.7c4.3-2.2,8.3-0.1,8.6,4.6C150.4,117.3,150.3,120.3,150.3,123.3
		C150.3,123.3,150.3,123.3,150.3,123.3z"/>
	<path class="st0" d="M170.2,109.9c4.8-2.7,8.3-0.7,8.3,5.9c0,5.1,0,10.3,0,15.4c0,1.6-0.1,2.9-2.3,2.9c-2.3,0-2.6-1.2-2.6-3
		c0.1-4.5,0.2-8.9-0.1-13.4c-0.1-1.3-1.4-3.6-2.4-3.7c-2.5-0.4-2.6,1.9-2.6,3.8c0,4.5-0.1,8.9,0,13.4c0,2-0.5,2.9-2.7,2.9
		c-2.3,0-2.2-1.4-2.2-3c0-6.1-0.1-12.1,0-18.2c0-1.2,0.3-3.4,1-3.5C166.1,109,167.8,109.6,170.2,109.9z"/>
	<path class="st0" d="M182.2,127.3c2-0.5,3.7-0.8,5.4,1.3c0.5,0.6,2.6-0.1,4-0.2c-0.3-1.3-0.1-3.1-0.9-3.8c-1.6-1.3-3.9-1.8-5.7-3
		c-2.5-1.7-3.3-4.3-2.6-7.3c0.8-3.1,2.9-4.9,6-5.4c3-0.5,5.5,0.6,7,3.3c0.5,0.9,0.4,2.3,0.6,3.4c-1.4-0.1-2.8-0.1-4.1-0.4
		c-1.2-0.3-2.3-1.2-3.5-1.3c-0.4,0-1.6,1.8-1.3,2.3c0.6,1.1,1.6,2.2,2.7,2.7c3.7,1.4,6.9,3.1,6.9,7.8c0,4-2.9,7.3-6.9,7.6
		C185.7,134.5,182.7,131.9,182.2,127.3z"/>
	<path class="st0" d="M154.6,121.1c0-3.2-0.2-6.4,0.1-9.6c0.1-0.9,1.4-2,2.3-2.3c1.6-0.5,2.5,0.5,2.5,2.3c0,6.7,0,13.5,0,20.2
		c0,1.7-0.6,2.5-2.4,2.4c-1.7,0-2.5-0.6-2.5-2.4C154.6,128.2,154.6,124.7,154.6,121.1z"/>
	<path class="st0" d="M159.6,99.5c-0.3,1.4-0.3,3.1-1.1,4.2c-0.3,0.5-2.5,0.3-3.4-0.3c-0.6-0.5-0.9-2.6-0.4-3.1
		c0.9-0.9,2.5-1.2,3.8-1.8C158.9,98.9,159.2,99.2,159.6,99.5z"/>
</g>
</svg>
